<?xml version="1.0" ?><svg id="Icons" viewBox="0 0 24 24" xmlns="http://www.w3.org/2000/svg" xmlns:xlink="http://www.w3.org/1999/xlink"><defs><style>.cls-1{fill:url(#linear-gradient);}.cls-2{fill:#ed960a;}.cls-3{fill:#ffb;}</style><linearGradient gradientUnits="userSpaceOnUse" id="linear-gradient" x1="12" x2="12" y1="1.277" y2="22.983"><stop offset="0" stop-color="#fff650"/><stop offset="1" stop-color="#ffab17"/></linearGradient></defs><path class="cls-1" d="M18,23H6a3,3,0,0,1-3-3V4A3,3,0,0,1,6,1h5.343a4,4,0,0,1,2.829,1.172l5.656,5.656A4,4,0,0,1,21,10.657V20A3,3,0,0,1,18,23Z"/><path class="cls-2" d="M17,20H7a1,1,0,0,1,0-2H17a1,1,0,0,1,0,2Z"/><path class="cls-2" d="M11,16H7a1,1,0,0,1,0-2h4a1,1,0,0,1,0,2Z"/><path class="cls-3" d="M20.64,9H16a3,3,0,0,1-3-3V1.36a4.089,4.089,0,0,1,1.17.81l5.66,5.66A4.089,4.089,0,0,1,20.64,9Z"/></svg>